<svg width="202" height="64" viewBox="0 0 202 64" fill="none" xmlns="http://www.w3.org/2000/svg">
<path d="M174.323 0.000352904C174.077 -0.000566243 173.828 0.000303153 173.577 0.00304221L173.579 0.00258289C162.743 0.12106 148.361 3.63803 140.373 6.3022C140.528 5.47646 140.63 4.49332 140.705 3.69017C139.994 3.13255 138.245 2.70018 137.186 2.75352C137.005 4.28863 136.697 5.95971 136.601 7.52653L133.827 8.70127C128.59 10.8409 126.652 11.7555 126.652 12.0893C126.652 12.24 127.916 12.7301 128.857 12.9447C129.727 13.1431 129.755 13.1431 129.971 12.9516C130.384 12.5852 131.341 12.1122 133.625 11.1461C134.877 10.6166 135.664 10.2858 135.822 10.224C135.894 10.1955 136.237 10.0529 136.276 10.0571C136.013 13.4088 135.551 16.3926 135.023 20.1118C132.003 22.9835 129.702 27.8727 134.312 29.9211C135.173 30.2993 136.885 30.7949 137.285 30.7949C137.618 27.7801 138.439 21.8395 138.779 18.7464C139.861 16.9606 143.51 12.6511 146.591 10.2454C146.441 14.8254 143.102 22.994 144.274 27.3144C144.723 28.176 147.733 29.1083 148.247 28.9604C148.995 28.7456 149.605 28.0329 150.084 27.448L150.093 27.4513L150.178 27.3331C150.206 27.2988 150.24 27.2595 150.267 27.2267C150.264 27.2258 150.26 27.2256 150.257 27.2245L152.587 23.9998C152.925 25.0202 153.583 25.8875 154.65 26.4877C155.773 26.9637 156.991 27.4956 158.284 27.4127C160.279 26.7849 161.472 25.5958 162.53 24.5718C163.387 25.2875 165.197 26.1083 166.423 25.9914C166.421 25.9907 166.42 25.9902 166.417 25.9891L169.262 22.8522C168.219 28.9984 167.088 36.0518 166.616 41.8197C167.493 42.3126 168.548 42.7263 169.548 42.8475C170.345 36.9123 171.101 27.1919 173.475 19.6449C174.531 17.0112 179.113 10.502 180.337 9.95724C181.276 10.952 179.003 19.2668 179.263 22.4362C179.19 22.871 181.358 23.5821 182.452 23.7341C183.403 23.8455 183.758 23.7353 184.277 23.0488C184.292 23.0309 184.305 22.9915 184.322 22.9723L184.32 22.9716L187.689 18.48C187.534 19.5935 187.374 20.7647 187.23 21.8296C187.913 22.3138 189.175 22.7084 190.293 22.8791C190.645 20.5381 190.911 17.5502 191.498 14.8523C191.879 14.4078 195.128 13.263 195.624 13.3841C196.132 15.9242 195.106 18.2152 195.59 20.6549C196.193 21.4278 198.798 22.4232 199.52 21.8604C197.302 21.0284 199.219 16.9916 199.003 13.88C196.598 12.6903 194.841 12.5605 192.602 13.4388C194.091 11.6695 195.922 9.85603 197.851 8.42749C197.099 9.50095 196.868 9.71185 195.863 10.623C196.031 10.8125 196.35 10.867 196.596 10.9201C197.299 10.9471 201.187 6.63019 201.587 5.58141C201.242 5.33674 200.877 5.28151 200.419 5.17075C197.239 7.52444 194.43 9.97783 191.803 12.558C191.909 11.0328 192.341 9.39727 192.149 7.86446C191.56 7.32312 190.152 6.9764 189.109 6.79317C188.796 10.2401 188.374 13.476 187.946 16.6038L183.323 22.7692C183.05 22.7157 182.787 22.6587 182.569 22.5834C181.746 20.8577 184.363 12.7129 183.567 10.5766C183.118 10.1069 180.578 9.17463 179.907 9.16823C178.785 9.10607 176.053 13.6221 173.82 16.3937C173.901 14.6848 174.34 12.7486 174.333 10.972C173.439 10.5842 172.393 10.121 171.366 10.1688C171.302 10.1975 171.314 10.2429 171.285 10.2853C171.095 12.2569 170.359 16.4366 169.542 21.2067L165.733 25.4059C164.059 23.2815 165.453 17.8272 166.553 15.0089C165.692 14.5387 164.56 14.1514 163.545 14.0929C162.172 16.1679 161.923 20.8155 161.904 23.6717C161.062 24.723 159.727 26.212 157.883 26.8645C154.963 26.2614 154.913 22.4368 155.808 20.6832C158.285 18.7641 163.844 14.2073 162.3 12.048C161.432 11.5941 160.488 11.374 159.185 11.3039C156.057 12.0696 151.913 18.2918 152.335 22.7656L149.305 26.9579C148.522 26.7578 147.813 26.6146 147.039 26.3832C147.289 21.5199 148.614 16.5552 150.032 10.3353C149.092 9.83499 147.815 9.41079 146.637 9.22344C145.281 9.62488 141.466 13.7468 139.123 16.3502C139.379 13.7414 139.745 10.7928 140.132 8.62294C141.226 8.14252 141.961 7.8488 143.17 7.40444C143.574 7.5199 144.059 7.60311 144.43 7.64208C153.412 6.27333 175.118 2.93365 180.223 1.60547C181.407 1.07886 179.766 0.493769 179.169 0.313589C177.681 0.105187 176.052 0.0069811 174.323 0.000352904ZM178.187 1.10867C178.566 1.11093 178.943 1.11662 179.316 1.12572C174.637 2.35701 153.931 5.50994 144.773 6.96464C152.107 4.21745 166.44 1.03941 178.187 1.10867ZM110.454 4.47895C106.311 5.16816 104.568 16.4384 104.468 24.7303L101.649 26.8457C101.657 24.6761 101.094 22.805 100.208 21.9928C99.0967 21.4235 98.225 21.1687 97.0449 20.845C94.4958 22.4778 93.7409 30.1577 97.5659 30.3721C97.5267 32.1368 94.7983 35.3078 91.8896 35.7369C90.2751 33.8445 91.3807 28.2582 92.1692 24.9349C92.039 24.665 89.4181 23.8484 89.118 23.9843C88.5858 26.0012 87.6847 30.265 88.1606 33.19L84.2617 37.746C84.003 37.695 83.7541 37.6411 83.5428 37.5682C82.7208 35.8425 85.3372 27.6978 84.541 25.5614C84.0919 25.0917 81.5526 24.1595 80.8809 24.1531C79.7593 24.0909 77.0274 28.6069 74.7945 31.3786C74.8756 29.6696 75.3145 27.7335 75.3069 25.9568C74.4134 25.569 73.3675 25.1059 72.34 25.1537C72.305 25.1694 72.2922 25.1903 72.2836 25.2127L67.7614 30.501C67.5794 28.9443 67.0834 27.6706 66.3933 27.0382C65.2824 26.4689 64.4104 26.2141 63.2303 25.8904C60.6812 27.5233 59.9266 35.2029 63.7516 35.4174C63.7123 37.182 60.984 40.353 58.0753 40.7821C56.4608 38.8897 57.5661 33.3037 58.3546 29.9803C58.2249 29.7114 55.624 28.9005 55.3083 29.0291L55.3065 29.028L55.3047 29.0302H55.3028V29.0314L51.9289 31.9775C51.7405 31.464 51.4435 30.9977 51.0128 30.6004C49.9597 29.8602 47.5093 29.1525 45.9019 29.3695C45.676 29.4 45.1018 29.5364 45.0725 29.5149C47.1879 26.3653 52.7197 19.131 47.4394 15.9456C45.909 15.3751 44.6865 14.9646 43.0097 14.3836C38.7371 15.0945 37.0163 27.0649 37.0194 35.4102L32.2788 39.9031C32.6467 37.5614 33.0574 34.9801 33.6142 31.4957C32.9147 31.0084 31.6125 30.5851 30.6727 30.5974C30.1452 34.2115 29.4005 38.5619 28.586 42.5764C26.9011 44.4934 25.8209 45.6337 24.2203 47.0687C23.6891 46.9622 23.3277 46.8657 22.7569 46.7281C23.5007 42.1979 24.3107 37.2253 24.2815 32.3947C23.7998 32.0997 22.3134 31.3729 21.11 31.3492C20.9023 36.1448 20.2855 41.0112 19.484 45.7385L11.5455 56.6693C-3.88993 48.4351 5.99954 19.7154 20.2215 10.5627C21.5394 11.7077 22.5142 13.0524 23.3587 14.419C21.115 18.2475 18.3345 26.5902 21.4298 29.3953C21.9897 29.5289 22.5771 29.6226 23.2671 29.7225C30.5737 25.7055 29.0403 10.1079 17.83 9.21314C5.6124 11.4089 -12.1657 50.8752 12.0309 57.4935L19.7314 47.0799C21.1793 47.7493 23.3656 48.8128 24.5798 48.0693C25.6218 47.1621 27.0061 45.7624 28.186 44.6726C28.0787 45.5291 27.8279 46.8572 27.6938 47.434C23.6926 51.2532 17.8661 58.9456 23.0846 62.8028C24.5934 63.4716 27.2929 64.6873 29.0353 63.5011C30.4737 52.0611 30.9436 48.4665 32.0562 41.3245L37.0329 36.6069C37.0995 39.7161 37.4213 42.165 37.9539 43.0528C38.7288 44.2186 40.9948 44.9631 42.6884 44.6501C47.6411 42.9885 52.5707 36.9683 52.1488 32.933L54.9583 30.481C54.2626 33.6347 53.5353 38.7706 55.3678 40.6051C56.5014 41.6048 59.2639 42.3704 60.8882 42.0569C66.0228 40.551 67.8457 35.6826 67.8346 31.8081L72.0582 26.8704C71.2097 32.8638 68.4054 46.854 67.5899 56.8053C68.4669 57.2981 69.5223 57.7118 70.5222 57.833C71.3196 51.8978 72.0748 42.1772 74.4494 34.6302C75.5054 31.9965 80.0871 25.4872 81.311 24.9425C82.2499 25.9373 79.9769 34.2524 80.2371 37.4217C80.1646 37.8565 82.3325 38.5674 83.4267 38.7194C84.3775 38.8308 84.6302 38.7395 85.2133 38.0718C85.2288 38.0546 85.2569 37.9798 85.2742 37.9571L88.4259 34.2749C88.605 34.7901 88.852 35.229 89.1824 35.5596C90.316 36.5594 93.0784 37.3252 94.7028 37.0117C99.3265 35.6556 101.264 31.5727 101.597 27.9441L104.464 25.7926C104.483 29.3301 104.814 32.1761 105.397 33.1489C106.172 34.3146 108.438 35.0592 110.132 34.7462C116.188 32.7142 122.215 24.163 118.457 20.6962C117.404 19.956 114.953 19.2484 113.346 19.4654C113.12 19.4959 112.546 19.6323 112.516 19.6108C114.632 16.4612 120.164 9.22685 114.884 6.04145C113.353 5.47095 112.13 5.06068 110.454 4.47962V4.47895ZM112.931 5.91265C120.916 7.50032 111.366 20.3845 108.5 22.1452C108.711 19.5439 109.829 6.7479 112.931 5.91265ZM161.647 12.8758C161.954 13.6125 158.913 17.5257 156.462 18.9378C157.526 15.7763 160.133 13.1357 161.647 12.8758ZM45.4872 15.8168C53.4719 17.4045 43.9226 30.2886 41.0565 32.0493C41.2673 29.4481 42.3856 16.6521 45.4872 15.8168ZM23.8745 15.9562C25.3376 20.2804 24.2916 25.1345 21.725 28.5312C20.4518 24.6705 21.6323 20.9861 23.8745 15.9562ZM116.093 20.7833C117.771 25.3181 112.898 30.937 108.382 33.1931C107.604 32.4415 107.699 26.1935 108.478 22.9135C109.371 23.2429 110.369 23.4897 111.441 23.5878C112.671 22.2738 113.969 21.2808 116.093 20.7833ZM97.5074 21.9522C98.7614 22.1018 99.0071 29.5819 96.9934 29.7645C94.9077 28.3452 96.2822 22.2552 97.5074 21.9522ZM134.724 22.2176C134.476 24.5976 134.32 26.7581 133.894 28.9607C132.208 28.0402 132.639 23.4424 134.724 22.2176ZM63.6928 26.9976C64.9468 27.1472 65.1925 34.6271 63.1788 34.8097C61.0931 33.3904 62.4676 27.3007 63.6928 26.9976ZM48.6492 30.6874C50.327 35.2223 45.4548 40.8409 40.9392 43.097C40.1609 42.3455 40.2555 36.0976 41.0348 32.8177C41.9273 33.1471 42.9259 33.3937 43.9977 33.4918C45.2276 32.1778 46.5253 31.1849 48.6492 30.6874ZM125.275 37.7015C121.846 37.7046 118.489 38.4274 115.603 39.7845C112.717 41.1416 110.422 43.0761 108.99 45.359H116.081V47.4832H113.138V56.3746H110.002V47.4832H107.949C107.544 48.5813 107.335 49.7133 107.328 50.8508C107.328 52.5776 107.792 54.2874 108.694 55.8828C109.596 57.4781 110.918 58.9277 112.585 60.1487C114.251 61.3697 116.23 62.3383 118.407 62.9991C120.584 63.6599 122.918 64 125.275 64C128.696 63.9969 132.045 63.2775 134.926 61.9265C137.808 60.5755 140.103 58.6493 141.54 56.3746H140.139L137.54 52.2356L136.832 53.0701V56.3746H133.867V53.0701L133.159 52.2356L130.559 56.3746H127.209L131.548 50.3003L127.617 45.359H131.054L133.094 48.3489L133.867 49.6233V45.359H136.832V49.6233L137.604 48.3489L139.645 45.359H141.558C140.126 43.0763 137.831 41.142 134.946 39.7849C132.06 38.4278 128.704 37.7049 125.275 37.7015ZM121.949 45.1386C124.956 45.1386 126.631 46.3976 126.738 48.7266H123.689C123.603 47.7194 123.087 47.3099 121.927 47.3099C121.004 47.3099 120.467 47.7509 120.467 48.7266V53.0066C120.467 53.9508 120.982 54.3916 121.927 54.3916C123.109 54.3916 123.646 53.9823 123.732 53.0066H126.782C126.717 55.3199 124.977 56.5631 121.927 56.5631C119.006 56.5631 117.288 55.3199 117.288 53.0066V48.7266C117.288 46.3976 119.007 45.1386 121.949 45.1386ZM142.184 46.4873L139.151 50.3003L142.379 54.8193C142.935 53.5359 143.22 52.1974 143.222 50.8508C143.215 49.3638 142.864 47.8883 142.184 46.4873ZM27.2984 49.3495C26.7292 53.9827 26.2399 58.7517 25.8001 63.2835C18.241 61.8232 24.1997 51.8348 27.2984 49.3495Z" fill="white" fill-opacity="0.9"/>
</svg>
